<svg viewBox="0 0 198 48" version="1.1" xmlns="http://www.w3.org/2000/svg" xmlns:xlink="http://www.w3.org/1999/xlink">
    <defs>
        <path d="M82.4631209,0.0474382239 L82.4631209,8.70394981 L88.2869987,8.70394981 L88.2869987,7.21426737 L84.103078,7.21426737 L84.103078,0.0474382239 L82.4631209,0.0474382239 Z M76.1249237,0.0474382239 L77.9171464,0.0474382239 L81.0831433,8.70394981 L79.3670534,8.70394981 L78.7822407,7.04369305 L75.1966674,7.04369305 L74.6112907,8.70394981 L72.9577989,8.70394981 L76.1249237,0.0474382239 Z M76.989454,1.97628185 L75.7053473,5.6271139 L78.2735607,5.6271139 L76.989454,1.97628185 Z M69.9643697,0.0474382239 L69.9643697,5.90815541 L66.1114857,0.0474382239 L64.3688903,0.0474382239 L64.3688903,8.70394981 L65.9840338,8.70394981 L65.9840338,2.75767471 L69.887673,8.70394981 L71.5789492,8.70394981 L71.5789492,0.0474382239 L69.9643697,0.0474382239 Z M60.5137505,8.70394981 L62.1796492,8.70394981 L62.1796492,0.0474382239 L60.5137505,0.0474382239 L60.5137505,8.70394981 Z M56.200686,0.0474382239 L53.8230866,6.21302317 L51.4573301,0.0474382239 L49.2455311,0.0474382239 L49.2455311,8.70394981 L50.834733,8.70394981 L50.834733,2.45280695 L53.1621411,8.582111 L54.370115,8.582111 L56.709366,2.52645174 L56.709366,8.70394981 L58.2991318,8.70394981 L58.2991318,0.0474382239 L56.200686,0.0474382239 Z M40.6397041,0.0474382239 L44.4418329,0.0474382239 C46.589906,0.0474382239 47.5689175,1.34217857 47.5689175,2.73330695 C47.5689175,3.89321236 46.9085359,4.80889865 45.9165536,5.16304344 L47.5689175,8.70394981 L45.7896656,8.70394981 L44.2890034,5.43217181 L42.292632,5.43217181 L42.292632,8.70394981 L40.6397041,8.70394981 L40.6397041,0.0474382239 Z M42.2796612,1.42719498 L42.2796612,4.01559266 L44.4672105,4.01559266 C45.3954668,4.01559266 45.9295244,3.5515222 45.9295244,2.73330695 C45.9295244,2.03747201 45.3700892,1.42719498 44.4418329,1.42719498 L42.2796612,1.42719498 Z M32.4636046,0.0474382239 L32.4636046,8.70394981 L38.8847019,8.70394981 L38.8847019,7.27545753 L34.1041256,7.27545753 L34.1041256,4.9069112 L38.31286,4.9069112 L38.31286,3.49033205 L34.1041256,3.49033205 L34.1041256,1.4759305 L38.8847019,1.4759305 L38.8847019,0.0474382239 L32.4636046,0.0474382239 Z M24.0726413,0.0474382239 L24.0726413,1.5127529 L26.742929,1.5127529 L26.742929,8.70394981 L28.38345,8.70394981 L28.38345,1.5127529 L31.0537377,1.5127529 L31.0537377,0.0474382239 L24.0726413,0.0474382239 Z M13.2516316,0.0474382239 L17.0537604,0.0474382239 C19.2023974,0.0474382239 20.1819728,1.34217857 20.1819728,2.73330695 C20.1819728,3.89321236 19.5204633,4.80889865 18.5284811,5.16304344 L20.1819728,8.70394981 L18.401593,8.70394981 L16.9009308,5.43217181 L14.9039955,5.43217181 L14.9039955,8.70394981 L13.2516316,8.70394981 L13.2516316,0.0474382239 Z M14.8921526,1.42719498 L14.8921526,4.01559266 L17.079138,4.01559266 C18.0073943,4.01559266 18.5414518,3.5515222 18.5414518,2.73330695 C18.5414518,2.03747201 17.9820167,1.42719498 17.0537604,1.42719498 L14.8921526,1.42719498 Z M9.39592784,8.70394981 L11.0618265,8.70394981 L11.0618265,0.0474382239 L9.39592784,0.0474382239 L9.39592784,8.70394981 Z M3.39948235,0.0474382239 L5.19283292,0.0474382239 L8.35882982,8.70394981 L6.642176,8.70394981 L6.0567993,7.04369305 L2.47122604,7.04369305 L1.88641329,8.70394981 L0.233485452,8.70394981 L3.39948235,0.0474382239 Z M4.26457662,1.97628185 L2.97990599,5.6271139 L5.54868331,5.6271139 L4.26457662,1.97628185 Z" id="path-1"></path>

        <linearGradient x1="50%" y1="0%" x2="50%" y2="100%" id="linearGradient-3">
            <stop stop-color="#FFFFFF" stop-opacity="0.5" offset="0%"></stop>
            <stop stop-color="#000000" stop-opacity="0.5" offset="100%"></stop>
        </linearGradient>

        <path d="M66.5649035,1.05664853 C67.2556332,0.390432315 68.2029035,0.0699046449 69.1751467,0.0699046449 C70.1479575,0.0699046449 71.0952278,0.390432315 71.7859575,1.05664853 C72.7712548,2.00619808 72.9381197,3.17836668 72.9381197,4.60816076 C72.9381197,6.03904879 72.7712548,7.19808997 71.7859575,8.1481865 C71.0952278,8.81385574 70.1479575,9.13438341 69.1751467,9.13438341 C68.2029035,9.13438341 67.2556332,8.81385574 66.5649035,8.1481865 C65.5796062,7.19808997 65.4127413,6.03904879 65.4127413,4.60816076 C65.4127413,3.17836668 65.5796062,2.00619808 66.5649035,1.05664853 Z M67.7420386,7.11221481 C68.1001737,7.48142331 68.6507143,7.69146192 69.1751467,7.69146192 C69.7001467,7.69146192 70.2501197,7.48142331 70.60939,7.11221481 C71.2359846,6.48319293 71.2615251,5.41002691 71.2615251,4.60816076 C71.2615251,3.80684158 71.2359846,2.7216421 70.60939,2.09262022 C70.2501197,1.72231777 69.7001467,1.51282614 69.1751467,1.51282614 C68.6507143,1.51282614 68.1001737,1.72231777 67.7420386,2.09262022 C67.1148764,2.7216421 67.0893359,3.80684158 67.0893359,4.60816076 C67.0893359,5.41002691 67.1148764,6.48319293 67.7420386,7.11221481 Z M92.6207954,0.23016848 L92.6207954,8.97411957 L98.4820656,8.97411957 L98.4820656,7.46938984 L94.2718494,7.46938984 L94.2718494,0.23016848 L92.6207954,0.23016848 Z M86.2419035,0.23016848 L88.0462008,0.23016848 L91.2325251,8.97411957 L89.5048494,8.97411957 L88.9162819,7.29709255 L85.3076873,7.29709255 L84.7185521,8.97411957 L83.0550116,8.97411957 L86.2419035,0.23016848 Z M87.1119846,2.17849538 L85.8190656,5.86620452 L88.4043359,5.86620452 L87.1119846,2.17849538 Z M80.0417954,0.23016848 L80.0417954,6.15008483 L76.1641737,0.23016848 L74.4109575,0.23016848 L74.4109575,8.97411957 L76.0359035,8.97411957 L76.0359035,2.96832807 L79.9646062,8.97411957 L81.6667413,8.97411957 L81.6667413,0.23016848 L80.0417954,0.23016848 Z M61.9233359,8.97411957 L63.5999305,8.97411957 L63.5999305,0.23016848 L61.9233359,0.23016848 L61.9233359,8.97411957 Z M53.4784981,0.23016848 L60.504417,0.23016848 L60.504417,1.71028431 L57.8169846,1.71028431 L57.8169846,8.97411957 L56.1659305,8.97411957 L56.1659305,1.71028431 L53.4784981,1.71028431 L53.4784981,0.23016848 Z M48.9175251,0.23016848 L50.7218224,0.23016848 L53.9087143,8.97411957 L52.1810386,8.97411957 L51.592471,7.29709255 L47.9833089,7.29709255 L47.3947413,8.97411957 L45.7312008,8.97411957 L48.9175251,0.23016848 Z M49.7876062,2.17849538 L48.4952548,5.86620452 L51.0805251,5.86620452 L49.7876062,2.17849538 Z M42.717417,0.23016848 L42.717417,6.15008483 L38.8397954,0.23016848 L37.0865792,0.23016848 L37.0865792,8.97411957 L38.7120927,8.97411957 L38.7120927,2.96832807 L42.6407954,8.97411957 L44.3429305,8.97411957 L44.3429305,0.23016848 L42.717417,0.23016848 Z M28.517444,0.23016848 L32.3445521,0.23016848 C34.5069846,0.23016848 35.4922819,1.53744004 35.4922819,2.94316719 C35.4922819,4.11478881 34.8265251,5.04027144 33.8287413,5.39744647 L35.4922819,8.97411957 L33.700471,8.97411957 L32.1913089,5.66874634 L30.1815521,5.66874634 L30.1815521,8.97411957 L28.517444,8.97411957 L28.517444,0.23016848 Z M30.1690656,1.62386217 L30.1690656,4.23840529 L32.3700927,4.23840529 C33.3043089,4.23840529 33.8412278,3.76964724 33.8412278,2.94316719 C33.8412278,2.24030362 33.2787683,1.62386217 32.3445521,1.62386217 L30.1690656,1.62386217 Z M20.3813629,0.23016848 L20.3813629,8.97411957 L26.8431197,8.97411957 L26.8431197,7.53119808 L22.0312819,7.53119808 L22.0312819,5.13872704 L26.2681737,5.13872704 L26.2681737,3.70783901 L22.0312819,3.70783901 L22.0312819,1.67308997 L26.8431197,1.67308997 L26.8431197,0.23016848 L20.3813629,0.23016848 Z M12.2821737,0.23016848 L12.2821737,1.71028431 L14.9696062,1.71028431 L14.9696062,8.97411957 L16.6200927,8.97411957 L16.6200927,1.71028431 L19.3075251,1.71028431 L19.3075251,0.23016848 L12.2821737,0.23016848 Z M9.57544402,0.23016848 L9.57544402,6.15008483 L5.69782239,0.23016848 L3.94460618,0.23016848 L3.94460618,8.97411957 L5.57011969,8.97411957 L5.57011969,2.96832807 L9.49882239,8.97411957 L11.2009575,8.97411957 L11.2009575,0.23016848 L9.57544402,0.23016848 Z M0.16176834,8.97411957 L1.8389305,8.97411957 L1.8389305,0.23016848 L0.16176834,0.23016848 L0.16176834,8.97411957 Z" id="path-4"></path>
        <path d="M20.136483,0.165052124 L16.6020781,4.15757432 L16.6020781,0.165052124 L14.9910496,0.165052124 L14.9910496,8.8210222 L16.6020781,8.8210222 L16.6020781,6.47684363 L18.1256049,4.73157046 L20.5230413,8.8210222 L22.4209425,8.8210222 L19.2498359,3.43737162 L22.0964108,0.165052124 L20.136483,0.165052124 Z M7.51519066,0.165052124 L7.51519066,8.8210222 L9.12621916,8.8210222 L9.12621916,5.34184749 L13.1468678,5.34184749 L13.1468678,3.91281371 L9.12621916,3.91281371 L9.12621916,1.5935444 L13.6336654,1.5935444 L13.6336654,0.165052124 L7.51519066,0.165052124 Z M3.96306388,0.165052124 L3.96306388,6.41619498 C3.96306388,7.12448456 3.61361081,7.58801351 2.88867568,7.58801351 C2.56414398,7.58801351 2.28945504,7.45426158 2.11500541,7.27069112 C1.84031646,6.97827799 1.79047371,6.53857529 1.79047371,6.11078571 L0.229287961,6.11078571 C0.229287961,7.05138127 0.479609337,7.75912934 1.00351204,8.28438996 C1.44046683,8.72409266 2.05242506,8.99213803 2.88867568,8.99213803 C4.5872059,8.99213803 5.57353857,7.92970367 5.57353857,6.29435618 L5.57353857,0.165052124 L3.96306388,0.165052124 Z" id="path-6"></path>
        <path d="M1.72764128,0.2153713 C0.783759214,0.2153713 0.0716339066,0.88387825 0.0716339066,1.77126184 L0.0716339066,45.1320252 C0.0716339066,46.0194088 0.783759214,46.6884813 1.72764128,46.6884813 L2.33502457,46.6884813 L2.33502457,0.2153713 L1.72764128,0.2153713 Z" id="path-8"></path>

        <linearGradient x1="0%" y1="0%" x2="100%" y2="0%" id="linearGradient-10">
            <stop stop-color="#FFB931" offset="0%"></stop>
            <stop stop-color="#FFD956" offset="50%"></stop>
            <stop stop-color="#00F99F" offset="100%"></stop>
        </linearGradient>

        <linearGradient x1="0%" y1="0%" x2="100%" y2="0%" id="linearGradient-11">
            <stop stop-color="#4FA4FD" offset="0%"></stop>
            <stop stop-color="#FF85FF" offset="100%"></stop>
        </linearGradient>

        <linearGradient x1="0%" y1="0%" x2="0%" y2="100%" id="linearGradient-12">
            <stop stop-color="#00F99F" offset="0%"></stop>
            <stop stop-color="#50E7C5" offset="24.4897959%"></stop>
            <stop stop-color="#46E7FF" offset="49.4897959%"></stop>
            <stop stop-color="#4FA4FD" offset="72.9591837%"></stop>
            <stop stop-color="#FF85FF" offset="100%"></stop>
        </linearGradient>

        <linearGradient x1="0%" y1="0%" x2="100%" y2="0%" id="linearGradient-13">
            <stop stop-color="#FFB931" offset="0%"></stop>
            <stop stop-color="#FFD956" offset="40.8163265%"></stop>
            <stop stop-color="#00F99F" offset="100%"></stop>
        </linearGradient>
    </defs>

    <g id="Page-1" stroke="none" stroke-width="1" fill="none" fill-rule="evenodd">
        <g id="04_home_sticky_nav" transform="translate(-101.000000, -26.000000)">
            <g id="Sticky_nav">
                <g id="Group-Copy" transform="translate(101.000000, 26.000000)">
                    <g id="Group-3-Copy" transform="translate(88.000000, 31.000000)">
                        <mask id="mask-2" fill="white">
                            <use xlink:href="#path-1"></use>
                        </mask>
                        <use id="Clip-2" fill="#000000" xlink:href="#path-1"></use>
                    </g>
                    <g id="Group-6-Copy" transform="translate(90.000000, 19.000000)">
                        <mask id="mask-5" fill="white">
                            <use xlink:href="#path-4"></use>
                        </mask>
                        <g id="Clip-5">
                            <use fill="#D8D8D8" xlink:href="#path-4"></use>
                            <use fill="url(#linearGradient-3)" xlink:href="#path-4"></use>
                            <use fill="url(#linearGradient-3)" xlink:href="#path-4"></use>
                            <use fill="url(#linearGradient-3)" xlink:href="#path-4"></use>
                            <use fill="url(#linearGradient-3)" xlink:href="#path-4"></use>
                            <use fill="url(#linearGradient-3)" xlink:href="#path-4"></use>
                            <use fill="url(#linearGradient-3)" xlink:href="#path-4"></use>
                            <use fill="url(#linearGradient-3)" xlink:href="#path-4"></use>
                            <use fill="url(#linearGradient-3)" xlink:href="#path-4"></use>
                            <use fill="url(#linearGradient-3)" xlink:href="#path-4"></use>
                            <use fill="url(#linearGradient-3)" xlink:href="#path-4"></use>
                            <use fill="url(#linearGradient-3)" xlink:href="#path-4"></use>
                            <use fill="url(#linearGradient-3)" xlink:href="#path-4"></use>
                            <use fill="url(#linearGradient-3)" xlink:href="#path-4"></use>
                            <use fill="url(#linearGradient-3)" xlink:href="#path-4"></use>
                            <use fill="url(#linearGradient-3)" xlink:href="#path-4"></use>
                            <use fill="#000000" xlink:href="#path-4"></use>
                        </g>
                    </g>
                    <g id="Group-9-Copy" transform="translate(88.000000, 8.000000)">
                        <mask id="mask-7" fill="white">
                            <use xlink:href="#path-6"></use>
                        </mask>
                        <use id="Clip-8" fill="#000000" xlink:href="#path-6"></use>
                    </g>
                    <g id="Group-12-Copy" transform="translate(76.000000, 0.000000)">
                        <mask id="mask-9" fill="white">
                            <use xlink:href="#path-8"></use>
                        </mask>
                        <use id="Clip-11" fill="#000000" xlink:href="#path-8"></use>
                    </g>
                    <path d="M196,1 L196,48 L196.53617,48 C197.370745,48 198,47.3233419 198,46.4264695 L198,2.57353049 C198,1.67608616 197.370745,1 196.53617,1 L196,1 Z" id="Combined-Shape-Copy" fill="#000000"></path>
                    <g id="Group-34-Copy">
                        <path d="M66.6220529,27.3529064 L66.6220529,26.9932021 C66.6220529,26.0458678 65.9046032,25.332115 64.9536841,25.332115 L62.2491883,25.332115 L62.2491883,27.3529064 L66.6220529,27.3529064 Z" id="Fill-16" fill="#000000"></path>
                        <path d="M37.249729,33.8625352 L36.7879026,34.4348948 C36.2073534,35.1543033 35.3916307,35.077951 34.958775,34.2742721 C35.427418,35.1916311 36.0687487,35.8833265 37.0014902,35.8833265 L51.6515525,35.8833265 L51.6515525,33.8625352 L37.249729,33.8625352 Z" id="Fill-18" fill="url(#linearGradient-10)"></path>
                        <path d="M64.9534001,35.8834396 C65.9048872,35.8834396 66.6217689,35.1691213 66.6217689,34.2223526 L66.6217689,33.8626483 L62.2489043,33.8626483 L62.2489043,35.8834396 L64.9534001,35.8834396 Z" id="Fill-20" fill="url(#linearGradient-11)"></path>
                        <path d="M51.6516093,16.0096669 L51.6516093,25.3320019 L44.1311683,25.3320019 L42.5008589,27.3527932 L51.6516093,27.3527932 L51.6516093,33.8625352 L51.6516093,35.8833265 L51.6516093,44.7599903 C51.6516093,45.706759 52.369059,46.4210773 53.3199782,46.4210773 L53.6812593,46.4210773 L53.6812593,35.8833265 L53.6812593,33.8625352 L53.6812593,27.3527932 L53.6812593,25.3320019 L53.6812593,13.4934338 L51.6516093,16.0096669 Z" id="Fill-22" fill="#000000"></path>
                        <path d="M60.580933,2.56074358 L60.5769567,2.56526817 L60.2196519,2.93289043 L60.2196519,5.38860716 L60.2196519,25.3323978 L60.2196519,27.3526236 L60.2196519,33.8623655 L60.2196519,35.8831568 L60.2196519,46.4209077 L60.580933,46.4209077 C61.5324202,46.4209077 62.2493019,45.7065893 62.2493019,44.7598206 L62.2493019,35.8831568 L62.2493019,33.8623655 L62.2493019,27.3526236 L62.2493019,25.3323978 L62.2493019,4.5939775 C62.2493019,3.64720877 61.4960649,2.8797266 60.580933,2.56074358" id="Fill-24" fill="url(#linearGradient-12)"></path>
                        <path d="M60.484705,2.52488627 L60.1194476,2.406116 L53.6811457,10.3331832 L51.6514957,12.8318834 L41.4992695,25.3321716 L39.8575991,27.3529629 L34.6763964,33.7326231 L34.9422447,34.2484255 C34.9467891,34.2580402 34.9536058,34.2648271 34.9587182,34.2744418 C35.3915739,35.0781206 36.2072966,35.154473 36.7878458,34.4350645 L37.2496721,33.8627049 L42.5007453,27.3529629 L44.1310546,25.3321716 L51.6514957,16.0098365 L53.6811457,13.4936035 L60.2194247,5.38894651 L60.2194247,2.93322977 L60.5767295,2.56504194 C60.5449185,2.55259934 60.5187881,2.53619773 60.484705,2.52488627" id="Fill-26" fill="url(#linearGradient-13)"></path>
                        <path d="M53.3798508,0.219498771 C52.4891452,-0.0700744595 51.2718097,0.282277342 50.6753551,1.00225141 L31.4956457,24.1483148 C30.8991911,24.8682889 30.7611544,26.1363029 31.1894657,26.9671292 L31.4172546,27.4088415 L53.8484938,0.371637831 L53.3798508,0.219498771 Z" id="Fill-28" fill="#000000"></path>
                        <path d="M36.307501,1.70163863 C36.307501,0.752607613 35.5889152,0.0371581274 34.6357238,0.0371581274 L1.67223162,0.0371581274 C0.719040281,0.0371581274 0.000454441637,0.752607613 0.000454441637,1.70163863 L0.000454441637,2.31189159 L36.307501,2.31189159 L36.307501,1.70163863 Z" id="Fill-30" fill="#000000"></path>
                        <path d="M36.029894,9.88807746 C36.2065582,9.62338943 36.3076714,9.30044741 36.3076714,8.94470217 L36.3076714,8.33444921 L23.3640375,8.33444921 L12.9436907,8.33444921 L5.68052055e-05,8.33444921 L5.68052055e-05,8.94470217 C5.68052055e-05,9.41921768 0.180129304,9.8354792 0.478924681,10.1329704 C0.777720057,10.4304617 1.19523831,10.6091827 1.67183398,10.6091827 L12.3205377,10.6091827 L12.3205377,44.7658157 C12.3205377,45.7148467 13.0396915,46.4308618 13.9928829,46.4308618 L14.6046749,46.4308618 L14.6046749,10.6091827 L21.7030533,10.6091827 L21.7030533,46.4308618 L22.0643344,46.4308618 C23.0175257,46.4308618 23.9871906,45.7148467 23.9871906,44.7658157 L23.9871906,10.6091827 L34.6358943,10.6091827 C35.2317809,10.6091827 35.735643,10.3297897 36.029894,9.88807746" id="Fill-32" fill="#000000"></path>
                    </g>
                </g>
            </g>
        </g>
    </g>
</svg>
