<svg viewBox="0 0 222 53" version="1.1" xmlns="http://www.w3.org/2000/svg">
  <path d="M104.616,16.425 L104.616,9.271 L102.78,9.271 L102.78,16.567 C102.78,17.394 102.381,17.935 101.554,17.935 C101.184,17.935 100.87,17.778 100.671,17.564 C100.357,17.223 100.3,16.71 100.3,16.211 L98.519,16.211 C98.519,17.308 98.804,18.135 99.402,18.746 C99.901,19.259 100.599,19.571 101.554,19.571 C103.491,19.571 104.616,18.334 104.616,16.425 L104.616,16.425 Z M113.807,10.937 L113.807,9.271 L106.826,9.271 L106.826,19.372 L108.663,19.372 L108.663,15.312 L113.251,15.312 L113.251,13.646 L108.663,13.646 L108.663,10.937 L113.807,10.937 Z M123.839,19.372 L120.219,13.09 L123.468,9.271 L121.23,9.271 L117.197,13.931 L117.197,9.271 L115.361,9.271 L115.361,19.372 L117.197,19.372 L117.197,16.637 L118.938,14.6 L121.673,19.372 L123.839,19.372 L123.839,19.372 Z" id="Fill-3"></path>
  <polygon id="Path" points="99.701 32.085 101.566 32.085 101.566 21.984 99.701 21.984"></polygon>
  <polygon id="Path" points="111.997 32.085 111.997 21.984 110.189 21.984 110.189 28.823 105.87 21.984 103.919 21.984 103.919 32.085 105.727 32.085 105.727 25.148 110.104 32.085"></polygon>
  <polygon id="Path" points="121.031 23.692 121.031 21.984 113.21 21.984 113.21 23.692 116.202 23.692 116.202 32.085 118.039 32.085 118.039 23.692"></polygon>
  <polygon id="Path" points="129.424 32.085 129.424 30.42 124.066 30.42 124.066 27.654 128.783 27.654 128.783 26.003 124.066 26.003 124.066 23.65 129.424 23.65 129.424 21.984 122.23 21.984 122.23 32.085"></polygon>
  <path d="M139.057,32.085 L137.064,32.085 L135.381,28.266 L133.143,28.266 L133.143,32.085 L131.293,32.085 L131.293,21.984 L135.553,21.984 C137.961,21.984 139.057,23.493 139.057,25.118 C139.057,26.473 138.316,27.541 137.206,27.953 L139.057,32.085 Z M137.221,25.118 C137.221,24.305 136.593,23.593 135.553,23.593 L133.129,23.593 L133.129,26.615 L135.581,26.615 C136.622,26.615 137.221,26.073 137.221,25.118 Z" id="Combined-Shape"></path>
  <polygon id="Path" points="148.918 32.085 148.918 21.984 147.109 21.984 147.109 28.823 142.79 21.984 140.84 21.984 140.84 32.085 142.648 32.085 142.648 25.148 147.023 32.085"></polygon>
  <path d="M159.628,32.085 L157.705,32.085 L157.049,30.147 L153.031,30.147 L152.375,32.085 L150.523,32.085 L154.07,21.984 L156.08,21.984 L159.628,32.085 Z M156.479,28.496 L155.04,24.236 L153.602,28.496 L156.479,28.496 Z" id="Combined-Shape"></path>
  <polygon id="Path" points="167.05 23.692 167.05 21.984 159.229 21.984 159.229 23.692 162.221 23.692 162.221 32.085 164.059 32.085 164.059 23.692"></polygon>
  <polygon id="Path" points="168.691 32.085 170.557 32.085 170.557 21.984 168.691 21.984"></polygon>
  <path d="M181.016,27.042 C181.016,28.695 180.831,30.035 179.734,31.132 C178.966,31.901 177.911,32.271 176.828,32.271 C175.744,32.271 174.689,31.901 173.92,31.132 C172.824,30.035 172.639,28.695 172.639,27.042 C172.639,25.389 172.824,24.035 173.92,22.938 C174.689,22.169 175.744,21.799 176.828,21.799 C177.911,21.799 178.966,22.169 179.734,22.938 C180.831,24.035 181.016,25.389 181.016,27.042 Z M179.15,27.042 C179.15,26.115 179.123,24.861 178.424,24.134 C178.025,23.707 177.412,23.464 176.828,23.464 C176.243,23.464 175.63,23.707 175.23,24.134 C174.532,24.861 174.504,26.115 174.504,27.042 C174.504,27.968 174.532,29.208 175.23,29.935 C175.63,30.363 176.243,30.605 176.828,30.605 C177.412,30.605 178.025,30.363 178.424,29.935 C179.123,29.208 179.15,27.968 179.15,27.042 Z" id="Combined-Shape"></path>
  <polygon id="Path" points="190.734 32.085 190.734 21.984 188.926 21.984 188.926 28.823 184.607 21.984 182.657 21.984 182.657 32.085 184.464 32.085 184.464 25.148 188.841 32.085"></polygon>
  <path d="M201.445,32.085 L199.521,32.085 L198.866,30.147 L194.848,30.147 L194.191,32.085 L192.34,32.085 L195.889,21.984 L197.896,21.984 L201.445,32.085 Z M198.296,28.496 L196.857,24.236 L195.418,28.496 L198.296,28.496 Z" id="Combined-Shape"></path>
  <polygon id="Path" points="209.575 32.085 209.575 30.349 204.887 30.349 204.887 21.984 203.05 21.984 203.05 32.085"></polygon>
  <path d="M87.55,1.069 L86.913,1.069 C85.922,1.069 85.174,1.816 85.174,2.809 L85.174,51.262 C85.174,52.253 85.922,52.999 86.913,52.999 L87.55,52.999 L87.55,1.069" id="Fill-5"></path>
  <path d="M219.367,53 L220.004,53 C220.994,53 221.742,52.252 221.742,51.261 L221.742,2.808 C221.742,1.817 220.994,1.07 220.004,1.07 L219.367,1.07 L219.367,53" id="Fill-6"></path>
  <path d="M40.463,2.934 C40.463,1.869 39.663,1.07 38.6,1.07 L1.863,1.069 C0.801,1.069 0,1.869 0,2.934 L0,3.615 L40.463,3.615 L40.463,2.934" id="Fill-7"></path>
  <path d="M26.038,10.356 L0,10.356 L0,11.039 C0,11.571 0.201,12.037 0.533,12.369 C0.866,12.703 1.331,12.903 1.863,12.903 L13.731,12.903 L13.731,51.139 C13.731,52.199 14.532,53 15.594,53 L16.276,53 L16.276,12.903 L24.187,12.903 L24.187,53 L24.59,53 C25.652,53 26.732,52.199 26.732,51.139 L26.732,12.903 L38.6,12.903 C39.265,12.903 39.827,12.59 40.154,12.097 C40.351,11.801 40.463,11.438 40.463,11.039 L40.463,10.356 L26.038,10.356" id="Fill-8"></path>
  <path d="M74.331,31.532 L74.331,31.128 C74.331,30.061 73.526,29.258 72.459,29.258 L69.425,29.258 L69.425,5.911 C69.425,4.844 68.579,3.98 67.553,3.622 L67.547,3.627 C67.513,3.612 67.483,3.594 67.445,3.582 L67.035,3.447 L38.491,38.715 L38.789,39.296 C38.795,39.308 38.803,39.315 38.809,39.327 C39.335,40.359 40.054,41.137 41.1,41.137 L57.535,41.137 L57.535,51.13 C57.535,52.196 58.34,53 59.407,53 L59.813,53 L59.813,15.929 L67.148,6.804 L67.148,53 L67.553,53 C68.621,53 69.425,52.196 69.425,51.13 L69.425,41.137 L72.459,41.137 C73.526,41.137 74.331,40.333 74.331,39.266 L74.331,38.861 L69.425,38.861 L69.425,31.532 L74.331,31.532 Z M41.377,38.861 L47.269,31.532 L57.535,31.532 L57.535,38.861 L41.377,38.861 Z M57.535,29.258 L49.097,29.258 L57.535,18.763 L57.535,29.258 L57.535,29.258 Z" id="Fill-9"></path>
  <path d="M59.475,0.985 C58.475,0.659 57.11,1.057 56.441,1.866 L34.923,27.925 C34.253,28.735 34.1,30.164 34.579,31.099 L34.835,31.596 L60.001,1.156 L59.475,0.985" id="Fill-10"></path>
  <path d="M107.624,44.799 L105.699,44.799 L105.044,42.86 L101.025,42.86 L100.371,44.799 L98.518,44.799 L102.066,34.697 L104.075,34.697 L107.624,44.799 Z M104.475,41.209 L103.035,36.948 L101.595,41.209 L104.475,41.209 Z" id="Combined-Shape"></path>
  <polygon id="Path" points="108.792 44.799 110.657 44.799 110.657 34.698 108.792 34.698"></polygon>
  <path d="M120.941,44.799 L118.948,44.799 L117.267,40.979 L115.028,40.979 L115.028,44.799 L113.178,44.799 L113.178,34.697 L117.438,34.697 C119.846,34.697 120.941,36.206 120.941,37.831 C120.941,39.186 120.201,40.253 119.092,40.666 L120.941,44.799 Z M119.105,37.831 C119.105,37.019 118.478,36.306 117.438,36.306 L115.014,36.306 L115.014,39.328 L117.465,39.328 C118.506,39.328 119.105,38.786 119.105,37.831 Z" id="Combined-Shape"></path>
  <polygon id="Path" points="133.125 36.405 133.125 34.697 125.303 34.697 125.303 36.405 128.297 36.405 128.297 44.799 130.133 44.799 130.133 36.405"></polygon>
  <polygon id="Path" points="141.519 44.799 141.519 43.134 136.16 43.134 136.16 40.366 140.877 40.366 140.877 38.716 136.16 38.716 136.16 36.362 141.519 36.362 141.519 34.697 134.323 34.697 134.323 44.799"></polygon>
  <path d="M151.312,44.799 L149.318,44.799 L147.637,40.979 L145.398,40.979 L145.398,44.799 L143.547,44.799 L143.547,34.697 L147.808,34.697 C150.215,34.697 151.312,36.206 151.312,37.831 C151.312,39.186 150.571,40.253 149.461,40.666 L151.312,44.799 Z M149.476,37.831 C149.476,37.019 148.849,36.306 147.808,36.306 L145.383,36.306 L145.383,39.328 L147.836,39.328 C148.877,39.328 149.476,38.786 149.476,37.831 Z" id="Combined-Shape"></path>
  <polygon id="Path" points="162.953 44.799 162.953 34.697 160.604 34.697 157.938 41.893 155.287 34.697 152.81 34.697 152.81 44.799 154.59 44.799 154.59 37.503 157.197 44.656 158.551 44.656 161.174 37.59 161.174 44.799"></polygon>
  <polygon id="Path" points="165.502 44.799 167.366 44.799 167.366 34.698 165.502 34.698"></polygon>
  <polygon id="Path" points="177.965 44.799 177.965 34.697 176.156 34.697 176.156 41.535 171.836 34.697 169.887 34.697 169.887 44.799 171.694 44.799 171.694 37.86 176.07 44.799"></polygon>
  <path d="M188.238,44.799 L186.315,44.799 L185.659,42.86 L181.642,42.86 L180.985,44.799 L179.133,44.799 L182.682,34.697 L184.69,34.697 L188.238,44.799 Z M185.09,41.209 L183.65,36.948 L182.211,41.209 L185.09,41.209 Z" id="Combined-Shape"></path>
  <polygon id="Path" points="196.368 44.799 196.368 43.061 191.68 43.061 191.68 34.697 189.844 34.697 189.844 44.799"></polygon>
</svg>
